<svg width="132" height="68" viewBox="0 0 132 68" fill="none" xmlns="http://www.w3.org/2000/svg">
<path d="M10.502 45.1182C10.209 48.0479 8.59766 49.6348 5.66797 49.8789C4.30078 49.8789 3.10449 49.4395 2.0791 48.5605C1.10254 47.6328 0.614258 46.4854 0.614258 45.1182V10.4014C0.663086 9.03418 1.17578 7.91113 2.15234 7.03223C3.12891 6.10449 4.30078 5.64062 5.66797 5.64062H9.25684H18.2656H36.3564C36.6494 5.64062 36.9424 5.66504 37.2354 5.71387H37.6748C41.0928 5.81152 43.9004 6.59277 46.0977 8.05762C48.2949 9.52246 49.8818 11.207 50.8584 13.1113C51.835 14.9668 52.3232 16.8467 52.3232 18.751C52.3232 20.7041 51.835 22.6328 50.8584 24.5371C49.9307 26.3926 48.3438 28.0527 46.0977 29.5176C43.9004 30.9824 41.0928 31.7637 37.6748 31.8613H24.7842C25.1748 34.3027 25.9805 36.1094 27.2012 37.2812C28.373 38.4531 29.8623 39.0391 31.6689 39.0391H47.4893C48.8564 39.0879 49.9795 39.6006 50.8584 40.5771C51.7861 41.5537 52.25 42.7256 52.25 44.0928C52.2012 45.4111 51.7129 46.5342 50.7852 47.4619C49.9062 48.3408 48.8076 48.8047 47.4893 48.8535H30.3506C26.7373 48.9023 23.4658 47.4863 20.5361 44.6055C17.6064 41.7246 15.8242 38.3066 15.1895 34.3516C14.3105 29.957 13.8711 27.4912 13.8711 26.9541C13.8711 25.5869 14.335 24.4395 15.2627 23.5117C16.2393 22.5352 17.4111 22.0469 18.7783 22.0469H38.1143C39.042 21.998 39.7988 21.8027 40.3848 21.4609C41.0195 21.0703 41.4834 20.6553 41.7764 20.2158C42.0693 19.7275 42.2158 19.2393 42.2158 18.751C42.2158 18.2627 42.0693 17.7988 41.7764 17.3594C41.4834 16.8711 41.0195 16.4561 40.3848 16.1143C39.7988 15.7236 39.042 15.5039 38.1143 15.4551H18.2656H12.4062C11.1367 15.5039 10.502 16.1387 10.502 17.3594V45.1182ZM101.176 44.9717V27.3203C101.176 26.0996 100.541 25.4648 99.2715 25.416H73.6367C72.709 25.4648 71.9033 25.8799 71.2197 26.6611C70.5361 27.3936 70.0234 28.2725 69.6816 29.2979C69.3887 30.2744 69.2422 31.2754 69.2422 32.3008C69.2422 33.2773 69.3887 34.2783 69.6816 35.3037C70.0234 36.2803 70.5361 37.1592 71.2197 37.9404C71.9033 38.6729 72.709 39.0391 73.6367 39.0391H92.3867C93.7539 39.0391 94.9014 39.5273 95.8291 40.5039C96.8057 41.4316 97.2939 42.5791 97.2939 43.9463C97.2939 45.3135 96.8057 46.4609 95.8291 47.3887C94.9014 48.3652 93.7539 48.8535 92.3867 48.8535H73.9297C70.5117 48.8047 67.6797 47.8525 65.4336 45.9971C63.2363 44.0928 61.6494 41.9688 60.6729 39.625C59.7451 37.2324 59.2812 34.7666 59.2812 32.2275C59.2812 29.7861 59.7695 27.3936 60.7461 25.0498C61.7227 22.6572 63.3096 20.5332 65.5068 18.6777C67.7041 16.7734 70.9512 15.748 75.248 15.6016H106.01C107.377 15.6016 108.549 16.0654 109.525 16.9932C110.502 17.8721 111.015 18.9951 111.063 20.3623V44.9717C111.063 46.3389 110.551 47.4863 109.525 48.4141C108.549 49.293 107.377 49.7324 106.01 49.7324C103.08 49.4883 101.469 47.9014 101.176 44.9717ZM125.565 14.8691C126.884 14.918 128.007 15.4062 128.935 16.334C129.862 17.2129 130.351 18.3115 130.399 19.6299V44.9717C130.399 48.8779 129.862 52.5645 128.788 56.0312C127.812 59.1074 126.2 61.6953 123.954 63.7949C121.757 65.9434 118.949 67.1152 115.531 67.3105H112.748C111.43 67.2617 110.331 66.7734 109.452 65.8457C108.524 64.9668 108.036 63.8682 107.987 62.5498C107.987 61.1826 108.451 60.0107 109.379 59.0342C110.258 58.0576 111.381 57.5449 112.748 57.4961H113.041C114.896 57.3984 116.435 56.6904 117.655 55.3721C118.876 54.0537 119.657 52.5156 119.999 50.7578C120.341 49 120.512 46.7295 120.512 43.9463V19.6299C120.561 18.2627 121.073 17.1396 122.05 16.2607C123.026 15.333 124.198 14.8691 125.565 14.8691ZM119.413 5.34766C119.413 3.98047 119.999 2.80859 121.171 1.83203C122.343 0.855469 123.759 0.367188 125.419 0.367188C127.079 0.367188 128.495 0.855469 129.667 1.83203C130.839 2.80859 131.425 3.98047 131.425 5.34766C131.425 6.76367 130.839 7.95996 129.667 8.93652C128.495 9.91309 127.079 10.4014 125.419 10.4014C123.759 10.4014 122.343 9.91309 121.171 8.93652C119.999 7.95996 119.413 6.76367 119.413 5.34766Z" fill="#ffffff"/>
</svg>
