<svg width="84" height="54" viewBox="0 0 84 54" fill="none" xmlns="http://www.w3.org/2000/svg">
<path d="M66.7738 21.021C66.3008 21.042 65.9058 20.708 65.8588 20.236C64.7208 8.876 55.1588 0 43.4988 0C34.7628 0 27.2068 4.988 23.4798 12.263C15.7138 10.628 8.27684 16.848 9.12084 25.201C3.37484 27.652 -0.531159 33.581 0.0588412 40.346C0.742841 48.202 7.77784 54 15.6628 54H66.8678C75.4768 54 83.1128 47.675 83.9228 39.104C84.8758 29.018 76.7338 20.578 66.7738 21.021ZM32.5598 37.939C33.1458 38.525 33.1458 39.475 32.5598 40.06L30.4388 42.181C29.8528 42.767 28.9028 42.767 28.3178 42.181L20.1968 34.06C19.6108 33.474 19.6108 32.524 20.1968 31.939L28.3178 23.818C28.9038 23.232 29.8538 23.232 30.4388 23.818L32.5598 25.939C33.1458 26.525 33.1458 27.475 32.5598 28.06L27.6198 33L32.5598 37.939ZM48.3198 23.526L41.3698 44.372C41.1078 45.158 40.2588 45.583 39.4728 45.321L36.6268 44.373C35.8408 44.111 35.4158 43.262 35.6778 42.475L42.6268 21.628C42.8888 20.842 43.7388 20.417 44.5248 20.68L47.3718 21.629C48.1568 21.891 48.5818 22.74 48.3198 23.526ZM63.8018 34.061L55.6808 42.182C55.0948 42.768 54.1448 42.768 53.5598 42.182L51.4388 40.061C50.8528 39.475 50.8528 38.525 51.4388 37.94L56.3778 33L51.4388 28.061C50.8528 27.475 50.8528 26.525 51.4388 25.94L53.5598 23.819C54.1458 23.233 55.0958 23.233 55.6808 23.819L63.8018 31.94C64.3868 32.525 64.3868 33.475 63.8018 34.061Z" fill="white"/>
</svg>
