<svg width="49" height="84" viewBox="0 0 49 84" fill="none" xmlns="http://www.w3.org/2000/svg">
<path d="M2 13.5518H8.199H12.199H47.148" stroke="white" stroke-width="3" stroke-miterlimit="10" stroke-linecap="round"/>
<path d="M47.148 68.4189H2" stroke="white" stroke-width="3" stroke-miterlimit="10" stroke-linecap="round"/>
<path d="M2 17.885V78.695C2 80.553 3.507 82.06 5.365 82.06H43.783C45.642 82.06 47.148 80.553 47.148 78.695V5.365C47.148 3.507 45.642 2 43.783 2H5.365C3.507 2 2 3.507 2 5.365V17.885Z" stroke="white" stroke-width="3" stroke-miterlimit="10" stroke-linecap="round"/>
<path d="M32.235 7.34277H31.199" stroke="white" stroke-width="3" stroke-miterlimit="10" stroke-linecap="round"/>
<path d="M27.199 7.34277H20.844" stroke="white" stroke-width="3" stroke-miterlimit="10" stroke-linecap="round"/>
<path d="M24.227 78.0911C25.8358 78.0911 27.14 76.7869 27.14 75.1781C27.14 73.5693 25.8358 72.2651 24.227 72.2651C22.6182 72.2651 21.314 73.5693 21.314 75.1781C21.314 76.7869 22.6182 78.0911 24.227 78.0911Z" stroke="white" stroke-width="3" stroke-miterlimit="10" stroke-linecap="round"/>
<path d="M21.6139 32.396L14.2329 39.604L21.6139 45.768" stroke="white" stroke-width="3" stroke-miterlimit="10" stroke-linecap="round" stroke-linejoin="round"/>
<path d="M27.269 32.396L34.649 39.604L27.269 45.768" stroke="white" stroke-width="3" stroke-miterlimit="10" stroke-linecap="round" stroke-linejoin="round"/>
</svg>
