<svg width="30" height="17" viewBox="0 0 30 17" fill="none" xmlns="http://www.w3.org/2000/svg">
<path d="M28.4043 13.5176H25.8789V1.5C25.8785 1.10231 25.7203 0.721029 25.4391 0.439819C25.1579 0.158608 24.7766 0.000434098 24.3789 0H4.85645C4.45876 0.000434098 4.07748 0.158608 3.79627 0.439819C3.51506 0.721029 3.35688 1.10231 3.35645 1.5V13.5176H0.83106C0.610751 13.5179 0.399559 13.6056 0.243777 13.7613C0.0879945 13.9171 0.000330623 14.1283 0 14.3486C0.000780625 14.9718 0.248682 15.5692 0.689335 16.0099C1.12999 16.4505 1.72742 16.6984 2.35059 16.6992H26.8848C27.5079 16.6984 28.1054 16.4505 28.546 16.0099C28.9867 15.5692 29.2346 14.9718 29.2354 14.3486C29.235 14.1283 29.1474 13.9171 28.9916 13.7613C28.8358 13.6056 28.6246 13.5179 28.4043 13.5176ZM4.85645 1H24.3789C24.5115 1.00017 24.6385 1.05291 24.7323 1.14664C24.826 1.24037 24.8787 1.36744 24.8789 1.5V2.165H4.35645V1.5C4.35662 1.36744 4.40936 1.24037 4.50309 1.14664C4.59682 1.05291 4.72389 1.00017 4.85645 1ZM4.35645 3.165H24.8789V13.5176H4.35645V3.165ZM26.8848 15.6992H2.35059C2.02178 15.6988 1.70438 15.5786 1.45777 15.3611C1.21116 15.1436 1.05225 14.8438 1.01075 14.5176H28.2246C28.1831 14.8438 28.0242 15.1436 27.7776 15.3611C27.531 15.5786 27.2136 15.6988 26.8848 15.6992Z" fill="white"/>
<path d="M17.375 5.52726C17.3285 5.48005 17.2731 5.44253 17.2121 5.4169C17.151 5.39126 17.0854 5.37802 17.0192 5.37793C16.953 5.37784 16.8874 5.39092 16.8262 5.4164C16.7651 5.44187 16.7096 5.47924 16.6631 5.52634C16.6165 5.57343 16.5797 5.62931 16.5549 5.69073C16.5301 5.75215 16.5178 5.81788 16.5186 5.88411C16.5194 5.95034 16.5334 6.01575 16.5597 6.07653C16.586 6.13732 16.6241 6.19227 16.6719 6.2382L18.7724 8.31828L16.6719 10.3974C16.6251 10.4435 16.5879 10.4984 16.5624 10.559C16.5369 10.6195 16.5235 10.6845 16.5231 10.7502C16.5228 10.8159 16.5353 10.881 16.5601 10.9418C16.5849 11.0027 16.6214 11.058 16.6676 11.1047C16.7138 11.1514 16.7688 11.1886 16.8293 11.214C16.8899 11.2395 16.9549 11.2528 17.0206 11.2531C17.0862 11.2534 17.1514 11.2408 17.2122 11.216C17.273 11.1911 17.3283 11.1545 17.375 11.1083L19.835 8.67374C19.882 8.62725 19.9193 8.5719 19.9448 8.51088C19.9703 8.44987 19.9834 8.3844 19.9834 8.31828C19.9834 8.25215 19.9703 8.18669 19.9448 8.12567C19.9193 8.06466 19.882 8.0093 19.835 7.96281L17.375 5.52726Z" fill="white"/>
<path d="M12.5674 5.53125C12.5212 5.48455 12.4663 5.44741 12.4058 5.42195C12.3453 5.39648 12.2804 5.38318 12.2147 5.38282C12.149 5.38246 12.084 5.39503 12.0232 5.41983C11.9624 5.44463 11.9071 5.48116 11.8604 5.52734L9.40038 7.96289C9.35336 8.00937 9.31603 8.06473 9.29055 8.12575C9.26507 8.18676 9.25195 8.25223 9.25195 8.31835C9.25195 8.38447 9.26507 8.44994 9.29055 8.51096C9.31603 8.57197 9.35336 8.62733 9.40038 8.67382L11.8604 11.1084C11.9071 11.1546 11.9624 11.1912 12.0232 11.2161C12.084 11.2409 12.1491 11.2535 12.2148 11.2532C12.2805 11.2528 12.3455 11.2396 12.406 11.2141C12.4666 11.1887 12.5215 11.1515 12.5677 11.1048C12.6139 11.0581 12.6505 11.0027 12.6753 10.9419C12.7 10.8811 12.7126 10.8159 12.7122 10.7503C12.7118 10.6846 12.6985 10.6196 12.673 10.5591C12.6474 10.4985 12.6103 10.4436 12.5635 10.3975L10.4629 8.31836L12.5635 6.23828C12.6102 6.19212 12.6473 6.13721 12.6728 6.07669C12.6983 6.01617 12.7116 5.95122 12.7119 5.88557C12.7123 5.81991 12.6997 5.75482 12.6749 5.69403C12.6501 5.63323 12.6136 5.57792 12.5674 5.53125Z" fill="white"/>
<path d="M16.272 4.04906C16.1475 4.00445 16.0105 4.01058 15.8904 4.06612C15.7704 4.12166 15.677 4.22216 15.6304 4.34594L12.9488 11.6379C12.9029 11.7624 12.9084 11.9 12.964 12.0204C13.0196 12.1408 13.1207 12.2342 13.2452 12.28C13.3696 12.3259 13.5072 12.3204 13.6276 12.2648C13.748 12.2092 13.8414 12.1081 13.8873 11.9836L16.5689 4.69164C16.6147 4.56706 16.6091 4.4294 16.5535 4.30892C16.4978 4.18843 16.3966 4.09497 16.272 4.04906Z" fill="white"/>
</svg>
