<svg width="46" height="43" viewBox="0 0 46 43" fill="none" xmlns="http://www.w3.org/2000/svg">
<path d="M6 0.00976562C2.53 0.00976562 0.00976562 2.08922 0.00976562 4.94922C0.00976562 7.81922 2.59 9.99023 6 9.99023C9.47 9.99023 11.9902 7.87063 11.9902 4.89062C11.8302 2.02063 9.36 0.00976562 6 0.00976562ZM1 12C0.45 12 0 12.45 0 13V42C0 42.55 0.45 43 1 43H11C11.55 43 12 42.55 12 42V13C12 12.45 11.55 12 11 12H1ZM16 12C15.45 12 15 12.45 15 13V42C15 42.55 15.45 43 16 43H25C25.552 43 26 42.552 26 42V27V26.75V26.5C26 24.13 27.8206 22.1995 30.1406 22.0195C30.2606 21.9995 30.38 22 30.5 22C30.62 22 30.7394 21.9995 30.8594 22.0195C33.1794 22.1995 35 24.13 35 26.5V42C35 42.552 35.448 43 36 43H45C45.55 43 46 42.55 46 42V25C46 18.53 42.5291 12 34.7891 12C31.2691 12 28.61 13.3602 27 14.4902V13C27 12.45 26.55 12 26 12H16Z" fill="#6e07f3"/>
</svg>
